<?xml version="1.0" encoding="UTF-8" standalone="no"?>
<!-- Created with Inkscape (http://www.inkscape.org/) -->

<svg
   width="64"
   height="64"
   viewBox="0 0 64 64"
   version="1.1"
   id="svg298"
   inkscape:version="1.2 (dc2aedaf03, 2022-05-15)"
   sodipodi:docname="nook.svg.2022_12_26_01_00_19.0.svg"
   xmlns:inkscape="http://www.inkscape.org/namespaces/inkscape"
   xmlns:sodipodi="http://sodipodi.sourceforge.net/DTD/sodipodi-0.dtd"
   xmlns:xlink="http://www.w3.org/1999/xlink"
   xmlns="http://www.w3.org/2000/svg"
   xmlns:svg="http://www.w3.org/2000/svg"
   xmlns:rdf="http://www.w3.org/1999/02/22-rdf-syntax-ns#"
   xmlns:cc="http://creativecommons.org/ns#"
   xmlns:dc="http://purl.org/dc/elements/1.1/">
  <sodipodi:namedview
     id="namedview300"
     pagecolor="#ffffff"
     bordercolor="#000000"
     borderopacity="0.25"
     inkscape:showpageshadow="2"
     inkscape:pageopacity="0.0"
     inkscape:pagecheckerboard="0"
     inkscape:deskcolor="#d1d1d1"
     inkscape:document-units="px"
     showgrid="false"
     inkscape:zoom="8.0000004"
     inkscape:cx="31.312499"
     inkscape:cy="22.937499"
     inkscape:window-width="1625"
     inkscape:window-height="1230"
     inkscape:window-x="413"
     inkscape:window-y="44"
     inkscape:window-maximized="0"
     inkscape:current-layer="svg298" />
  <defs
     id="defs295">
    <linearGradient
       inkscape:collect="always"
       id="linearGradient7817">
      <stop
         style="stop-color:#ffd453;stop-opacity:1;"
         offset="0"
         id="stop7813" />
      <stop
         style="stop-color:#ffd453;stop-opacity:1;"
         offset="0.66666669"
         id="stop7815" />
      <stop
         style="stop-color:#ffffff;stop-opacity:1;"
         offset="0.99989998"
         id="stop8599" />
    </linearGradient>
    <radialGradient
       inkscape:collect="always"
       xlink:href="#linearGradient7817"
       id="radialGradient8589"
       cx="32.808697"
       cy="46.485531"
       fx="32.808697"
       fy="46.485531"
       r="29"
       gradientUnits="userSpaceOnUse"
       spreadMethod="reflect"
       gradientTransform="matrix(1.2070863,-1.2070863,1.5,1.5,-62.831224,16.374633)" />
  </defs>
  <circle
     style="display:inline;opacity:1;fill:#666666;fill-opacity:1;stroke-width:2.017;stroke-dasharray:2.017, 2.017"
     id="path5776"
     cx="32"
     cy="32"
     r="29"
     inkscape:label="o" />
  <path
     id="path1078"
     style="display:inline;opacity:1;fill:#ffd453;fill-opacity:1;stroke-width:2.017;stroke-dasharray:2.017, 2.017"
     d="M 32,3 C 15.983806,3 3,15.983806 3,32 c 0,16.016194 12.983806,29 29,29 4.004052,0 7.25,-3.245948 7.25,-7.25 0,-4.004052 -3.245948,-7.25 -7.25,-7.25 -8.008113,0 -14.5,-6.491887 -14.5,-14.5 0,-8.008113 6.491887,-14.5 14.5,-14.5 8.008113,0 14.5,6.491887 14.5,14.5 0,4.004048 3.245952,7.25 7.25,7.25 C 57.754048,39.25 61,36.004048 61,32 61,15.983806 48.016194,3 32,3 Z"
     inkscape:label="c" />
  <circle
     style="display:inline;opacity:1;fill:#ffffff;fill-opacity:1;stroke-width:1.97299;stroke-dasharray:1.97299, 1.97299"
     id="path5778"
     cx="32"
     cy="32"
     r="14.5"
     inkscape:label="c.o" />
  <path
     id="path7752"
     style="display:none;opacity:1;fill:url(#radialGradient8589);fill-opacity:1;stroke-width:2.017;stroke-dasharray:2.017, 2.017"
     d="M 32,3 C 15.983806,3 3,15.983806 3,32 c 0,16.016194 12.983806,29 29,29 4.004052,0 7.25,-3.245948 7.25,-7.25 0,-4.004052 -3.245948,-7.25 -7.25,-7.25 -8.008113,0 -14.5,-6.491887 -14.5,-14.5 0,-8.008113 6.491887,-14.5 14.5,-14.5 8.008113,0 14.5,6.491887 14.5,14.5 0,4.004048 3.245952,7.25 7.25,7.25 C 57.754048,39.25 61,36.004048 61,32 61,15.983806 48.016194,3 32,3 Z"
     inkscape:label="c &lt;fade&gt;" />
  <metadata
     id="metadata421">
    <rdf:RDF>
      <cc:Work
         rdf:about="">
        <dc:creator>
          <cc:Agent>
            <dc:title>eggheadedmonkey</dc:title>
          </cc:Agent>
        </dc:creator>
        <cc:license
           rdf:resource="https://github.com/cykomaniacs/org/blob/af1bb47572cb1a5f5e5fc628d5ca9d68fc5b6194/LICENSE" />
      </cc:Work>
    </rdf:RDF>
  </metadata>
</svg>
