<?xml version="1.0" encoding="UTF-8" standalone="no"?>
<!-- Created with Inkscape (http://www.inkscape.org/) -->

<svg
   width="512"
   height="512"
   viewBox="0 0 512 512"
   version="1.1"
   id="svg5"
   inkscape:version="1.2 (dc2aedaf03, 2022-05-15)"
   sodipodi:docname="cyko.preferences.bnw.w.svg"
   inkscape:export-filename="..\..\..\web\cyko.preferences.bnw.w.512.webp"
   inkscape:export-xdpi="96"
   inkscape:export-ydpi="96"
   xmlns:inkscape="http://www.inkscape.org/namespaces/inkscape"
   xmlns:sodipodi="http://sodipodi.sourceforge.net/DTD/sodipodi-0.dtd"
   xmlns="http://www.w3.org/2000/svg"
   xmlns:svg="http://www.w3.org/2000/svg"
   xmlns:rdf="http://www.w3.org/1999/02/22-rdf-syntax-ns#"
   xmlns:cc="http://creativecommons.org/ns#"
   xmlns:dc="http://purl.org/dc/elements/1.1/">
  <sodipodi:namedview
     id="namedview7"
     pagecolor="#ffffff"
     bordercolor="#e5e5e5"
     borderopacity="1"
     inkscape:showpageshadow="true"
     inkscape:pageopacity="0"
     inkscape:pagecheckerboard="false"
     inkscape:deskcolor="#e5e5e5"
     inkscape:document-units="px"
     showgrid="false"
     inkscape:zoom="1.6089675"
     inkscape:cx="252.02498"
     inkscape:cy="247.3636"
     inkscape:window-width="1631"
     inkscape:window-height="1277"
     inkscape:window-x="540"
     inkscape:window-y="58"
     inkscape:window-maximized="0"
     inkscape:current-layer="layer4"
     showguides="false" />
  <defs
     id="defs2">
    <linearGradient
       id="linearGradient6961"
       inkscape:swatch="gradient">
      <stop
         style="stop-color:#423ac1;stop-opacity:1;"
         offset="0.52439022"
         id="stop6957" />
      <stop
         style="stop-color:#000000;stop-opacity:0;"
         offset="1"
         id="stop6959" />
    </linearGradient>
  </defs>
  <g
     inkscape:label="base"
     inkscape:groupmode="layer"
     id="layer1"
     inkscape:highlight-color="#d9d9d9">
    <path
       id="rect6502"
       style="opacity:0.2;fill:#000000;fill-rule:evenodd;stroke-width:1.94392;stroke-dasharray:1.94392, 1.94392"
       inkscape:label="base:shade"
       d="m 488,462 v 10 c 0,13.296 -10.704,24 -24,24 H 48 C 34.704,496 24,485.296 24,472 v -10 z"
       sodipodi:nodetypes="csssscc" />
    <rect
       style="opacity:1;fill:#d9d9d9;fill-opacity:1;fill-rule:evenodd;stroke-width:1.94392;stroke-dasharray:1.94392, 1.94392"
       id="rect6454"
       width="464"
       height="464"
       x="24"
       y="24"
       rx="24"
       ry="24"
       inkscape:label="base:shape" />
    <path
       id="rect6483"
       style="opacity:0.5;fill:#ffffff;fill-rule:evenodd;stroke-width:1.94392;stroke-dasharray:1.94392, 1.94392"
       inkscape:label="base:shape"
       d="m 48,24 h 416 c 13.296,0 24,10.704 24,24 v 8 c 0,0 0,-24 -24,-24 H 48 C 24,32 24,56 24,56 V 48 C 24,34.704 34.704,24 48,24 Z"
       sodipodi:nodetypes="ssscsscss" />
  </g>
  <g
     inkscape:groupmode="layer"
     id="layer2"
     inkscape:label="bar"
     style="display:inline;opacity:1"
     inkscape:highlight-color="#1a1a1a">
    <g
       id="g933"
       style="display:inline;opacity:1"
       inkscape:label="bar:shape">
      <g
         id="g1863"
         inkscape:label="bar:shape:a"
         style="fill:#4d4d4d;fill-opacity:1">
        <path
           id="rect6469-8-2"
           style="display:inline;opacity:1;stroke-width:5.689;stroke-miterlimit:0;paint-order:stroke markers fill;fill:#4d4d4d;fill-opacity:1"
           inkscape:label="bar:1:shape:a"
           d="m 176,208 v 168 c 0,13.296 -10.704,24 -24,24 -13.296,0 -24,-10.704 -24,-24 V 208 Z"
           sodipodi:nodetypes="cssscc" />
        <path
           id="rect6469"
           style="display:inline;opacity:1;stroke-width:5.689;stroke-miterlimit:0;paint-order:stroke markers fill;fill:#4d4d4d;fill-opacity:1"
           inkscape:label="bar:2:shape:a"
           d="m 280,304 v 72 c 0,13.296 -10.704,24 -24,24 -13.296,0 -24,-10.704 -24,-24 v -72 z"
           sodipodi:nodetypes="cssscc" />
        <path
           id="rect6469-8"
           style="display:inline;opacity:1;stroke-width:5.689;stroke-miterlimit:0;paint-order:stroke markers fill;fill:#4d4d4d;fill-opacity:1"
           inkscape:label="bar:3:shape:a"
           d="m 384,208 v 168 c 0,13.296 -10.704,24 -24,24 -13.296,0 -24,-10.704 -24,-24 V 208 Z"
           sodipodi:nodetypes="cssscc" />
      </g>
      <g
         id="g1858"
         inkscape:label="bar:shape:b"
         style="fill:#000000;fill-opacity:1;opacity:0.2">
        <path
           id="rect1840"
           style="display:inline;opacity:1;stroke-width:5.689;stroke-miterlimit:0;paint-order:stroke markers fill;fill:#000000;fill-opacity:1"
           inkscape:label="bar:1:shape:b"
           d="m 152,112 c 13.296,0 24,10.704 24,24 v 72 h -48 v -72 c 0,-13.296 10.704,-24 24,-24 z"
           sodipodi:nodetypes="ssccss" />
        <path
           id="rect1834"
           style="display:inline;opacity:1;stroke-width:5.689;stroke-miterlimit:0;paint-order:stroke markers fill;fill:#000000;fill-opacity:1"
           inkscape:label="bar:2:shape:b"
           d="m 256,112 c 13.296,0 24,10.704 24,24 V 304 H 232 V 136 c 0,-13.296 10.704,-24 24,-24 z"
           sodipodi:nodetypes="ssccss" />
        <path
           id="rect1830"
           style="display:inline;opacity:1;stroke-width:5.689;stroke-miterlimit:0;paint-order:stroke markers fill;fill:#000000;fill-opacity:1"
           inkscape:label="bar:3:shape:b"
           d="m 360,112 c 13.296,0 24,10.704 24,24 v 72 h -48 v -72 c 0,-13.296 10.704,-24 24,-24 z"
           sodipodi:nodetypes="ssccss" />
      </g>
    </g>
    <g
       id="g1569"
       inkscape:label="bar:shade"
       style="display:inline;opacity:0.1;fill:#0b0b0b;fill-opacity:1">
      <path
         id="rect7695-0-3"
         style="display:inline;opacity:1;fill:#0b0b0b;fill-opacity:1;stroke-width:5.689;stroke-miterlimit:0;paint-order:stroke markers fill"
         inkscape:label="bar:1:shade"
         d="m 152,112 c 13.296,0 24,10.704 24,24 v 8 c 0,0 0,-24 -24,-24 -24,0 -24,24 -24,24 v -8 c 0,-13.296 10.704,-24 24,-24 z"
         sodipodi:nodetypes="sscscss" />
      <path
         id="rect7695"
         style="display:inline;opacity:1;fill:#0b0b0b;stroke-width:5.689;stroke-miterlimit:0;paint-order:stroke markers fill;fill-opacity:1"
         inkscape:label="bar:2:shade"
         d="m 256,112 c 13.296,0 24,10.704 24,24 v 8 c 0,0 0,-24 -24,-24 -24,0 -24,24 -24,24 v -8 c 0,-13.296 10.704,-24 24,-24 z"
         sodipodi:nodetypes="sscscss" />
      <path
         id="rect7695-0"
         style="display:inline;opacity:1;fill:#0b0b0b;fill-opacity:1;stroke-width:5.689;stroke-miterlimit:0;paint-order:stroke markers fill"
         inkscape:label="bar:3:shade"
         d="m 360,112 c 13.296,0 24,10.704 24,24 v 8 c 0,0 0,-24 -24,-24 -24,0 -24,24 -24,24 v -8 c 0,-13.296 10.704,-24 24,-24 z"
         sodipodi:nodetypes="sscscss" />
    </g>
  </g>
  <g
     inkscape:groupmode="layer"
     id="layer4"
     inkscape:label="handle"
     inkscape:highlight-color="#808080"
     style="display:inline;opacity:1">
    <g
       id="g3003"
       inkscape:label="b( rect )"
       style="display:none;opacity:1">
      <g
         id="g2989"
         inkscape:label="handle:rect:shade"
         transform="translate(0,8)"
         style="display:inline;opacity:0.2;fill:#000000">
        <rect
           style="display:inline;opacity:1;fill:#000000;fill-opacity:1;fill-rule:evenodd;stroke-width:2.017;stroke-dasharray:2.017, 2.017"
           id="rect2983"
           width="96"
           height="64"
           x="104"
           y="176"
           rx="12"
           ry="12"
           inkscape:label="handle:1:b:shape" />
        <rect
           style="display:inline;opacity:1;fill:#000000;fill-opacity:1;fill-rule:evenodd;stroke-width:2.017;stroke-dasharray:2.017, 2.017"
           id="rect2980"
           width="96"
           height="64"
           x="208"
           y="272"
           rx="12"
           ry="12"
           inkscape:label="handle:2:b:shape" />
        <rect
           style="display:inline;opacity:1;fill:#000000;fill-opacity:1;fill-rule:evenodd;stroke-width:2.017;stroke-dasharray:2.017, 2.017"
           id="rect2977"
           width="96"
           height="64"
           x="312"
           y="176"
           rx="12"
           ry="12"
           inkscape:label="handle:3:b:shape" />
      </g>
      <g
         id="g2932"
         inkscape:label="handle:rect:shape"
         style="fill:#808080;fill-opacity:1">
        <rect
           style="opacity:1;fill:#808080;fill-opacity:1;fill-rule:evenodd;stroke-width:2.017;stroke-dasharray:2.017, 2.017"
           id="rect2692"
           width="96"
           height="64"
           x="104"
           y="176"
           rx="12"
           ry="12"
           inkscape:label="handle:1:b:shape" />
        <rect
           style="display:inline;opacity:1;fill:#808080;fill-opacity:1;fill-rule:evenodd;stroke-width:2.017;stroke-dasharray:2.017, 2.017"
           id="rect2692-2"
           width="96"
           height="64"
           x="208"
           y="272"
           rx="12"
           ry="12"
           inkscape:label="handle:2:b:shape" />
        <rect
           style="display:inline;fill:#808080;fill-opacity:1;fill-rule:evenodd;stroke-width:2.017;stroke-dasharray:2.017, 2.017"
           id="rect2692-3"
           width="96"
           height="64"
           x="312"
           y="176"
           rx="12"
           ry="12"
           inkscape:label="handle:3:b:shape" />
      </g>
      <g
         id="g3056"
         inkscape:label="handle:b:shine"
         style="opacity:0.1;fill:#ffffff;fill-opacity:1">
        <path
           id="rect3044"
           style="display:inline;opacity:1;fill:#ffffff;fill-opacity:1;fill-rule:evenodd;stroke-width:2.017;stroke-dasharray:2.017, 2.017"
           inkscape:label="handle:1:b:shape"
           d="m 116,176 h 72 c 6.648,0 12,5.352 12,12 v 8 c 0,0 0,-12 -12,-12 h -72 c -12,0 -12,12 -12,12 v -8 c 0,-6.648 5.352,-12 12,-12 z"
           sodipodi:nodetypes="ssscsscss" />
        <path
           id="rect3047"
           style="display:inline;opacity:1;fill:#ffffff;fill-opacity:1;fill-rule:evenodd;stroke-width:2.017;stroke-dasharray:2.017, 2.017"
           inkscape:label="handle:2:b:shape"
           d="m 220,272 h 72 c 6.648,0 12,5.352 12,12 v 8 c 0,0 0,-12 -12,-12 h -72 c -12,0 -12,12 -12,12 v -8 c 0,-6.648 5.352,-12 12,-12 z"
           sodipodi:nodetypes="ssscsscss" />
        <path
           id="rect3050"
           style="display:inline;opacity:1;fill:#ffffff;fill-opacity:1;fill-rule:evenodd;stroke-width:2.017;stroke-dasharray:2.017, 2.017"
           inkscape:label="handle:3:b:shape"
           d="m 324,176 h 72 c 6.648,0 12,5.352 12,12 v 8 c 0,0 0,-12 -12,-12 h -72 c -12,0 -12,12 -12,12 v -8 c 0,-6.648 5.352,-12 12,-12 z"
           sodipodi:nodetypes="ssscsscss" />
      </g>
    </g>
    <g
       id="g2599"
       inkscape:label="a( ball )"
       style="display:inline;opacity:1">
      <g
         id="g605"
         inkscape:label="handle:shade"
         style="opacity:0.2;fill:#000000;fill-opacity:1">
        <circle
           style="display:inline;opacity:1;fill:#000000;fill-opacity:1;fill-rule:nonzero;stroke:none;stroke-width:5.689;stroke-miterlimit:0;stroke-dasharray:none;stroke-dashoffset:0;stroke-opacity:1;paint-order:stroke markers fill"
           id="circle607"
           cx="152"
           cy="216.00008"
           r="48"
           inkscape:label="handle:1:a:shade" />
        <circle
           style="opacity:1;fill:#000000;fill-opacity:1;fill-rule:nonzero;stroke:none;stroke-width:5.689;stroke-miterlimit:0;stroke-dasharray:none;stroke-dashoffset:0;stroke-opacity:1;paint-order:stroke markers fill"
           id="circle545"
           cx="256"
           cy="312"
           r="48"
           inkscape:label="handle:2:a:shade" />
        <circle
           style="opacity:1;fill:#000000;fill-opacity:1;fill-rule:nonzero;stroke:none;stroke-width:5.689;stroke-miterlimit:0;stroke-dasharray:none;stroke-dashoffset:0;stroke-opacity:1;paint-order:stroke markers fill"
           id="circle739"
           cx="360"
           cy="216"
           r="48"
           inkscape:label="handle:3:a:shade" />
      </g>
      <g
         id="g613"
         inkscape:label="handle:shape"
         transform="translate(-104)"
         style="fill:#808080;fill-opacity:1">
        <circle
           style="opacity:1;fill:#808080;fill-opacity:1;fill-rule:nonzero;stroke:none;stroke-width:5.689;stroke-miterlimit:0;stroke-dasharray:none;stroke-dashoffset:0;stroke-opacity:1;paint-order:stroke markers fill"
           id="circle609"
           cx="256"
           cy="208"
           r="48"
           inkscape:label="handle:1:a:shape" />
        <circle
           style="opacity:1;fill:#808080;fill-opacity:1;fill-rule:nonzero;stroke:none;stroke-width:5.689;stroke-miterlimit:0;stroke-dasharray:none;stroke-dashoffset:0;stroke-opacity:1;paint-order:stroke markers fill"
           id="path8190"
           cx="360"
           cy="304"
           r="48"
           inkscape:label="handle:2:a:shape" />
        <circle
           style="opacity:1;fill:#808080;fill-opacity:1;fill-rule:nonzero;stroke:none;stroke-width:5.689;stroke-miterlimit:0;stroke-dasharray:none;stroke-dashoffset:0;stroke-opacity:1;paint-order:stroke markers fill"
           id="circle741"
           cx="464"
           cy="208"
           r="48"
           inkscape:label="handle:3:a:shape" />
      </g>
      <g
         id="g745"
         inkscape:label="handle:a:shine"
         transform="translate(104)"
         style="opacity:0.15;fill:#ffffff;fill-opacity:1">
        <path
           id="path611"
           style="display:inline;opacity:1;fill:#ffffff;fill-opacity:1;stroke-width:5.689;stroke-miterlimit:0;paint-order:stroke markers fill"
           inkscape:label="handle:1:a:shine"
           d="m 96,207.99992 c 0,0 0,-40 -48,-40 -48,0 -48,40 -48,40 0,-26.50967 21.49033,-48 48,-48 26.50967,0 48,21.49033 48,48 z"
           sodipodi:nodetypes="cscsc" />
        <path
           id="circle262"
           style="display:inline;opacity:1;fill:#ffffff;fill-opacity:1;stroke-width:5.689;stroke-miterlimit:0;paint-order:stroke markers fill"
           inkscape:label="handle:2:a:shine"
           d="m 200,304 c 0,0 0,-40 -48,-40 -48,0 -48,40 -48,40 0,-26.50967 21.49033,-48 48,-48 26.50967,0 48,21.49033 48,48 z"
           sodipodi:nodetypes="cscsc" />
        <path
           id="path743"
           style="opacity:1;fill:#ffffff;fill-opacity:1;stroke-width:5.689;stroke-miterlimit:0;paint-order:stroke markers fill"
           inkscape:label="handle:3:a:shine"
           d="m 304,208 c 0,0 0,-40 -48,-40 -48,0 -48,40 -48,40 0,-26.50967 21.49033,-48 48,-48 26.50967,0 48,21.49033 48,48 z"
           sodipodi:nodetypes="cscsc" />
      </g>
    </g>
  </g>
  <metadata
     id="metadata2044">
    <rdf:RDF>
      <cc:Work
         rdf:about="">
        <dc:creator>
          <cc:Agent>
            <dc:title>eggheadedmonkey</dc:title>
          </cc:Agent>
        </dc:creator>
        <dc:publisher>
          <cc:Agent>
            <dc:title>cykomaniacs &lt;cyko@eggheadedmonkey.com&gt;</dc:title>
          </cc:Agent>
        </dc:publisher>
      </cc:Work>
    </rdf:RDF>
  </metadata>
</svg>
