<svg width="697" height="181" viewBox="0 0 697 181" fill="none" xmlns="http://www.w3.org/2000/svg">
<path opacity="0.4" d="M261.8 179.102C212.4 179.102 172.3 138.902 172.3 89.6016C172.3 40.2016 212.5 0.101562 261.8 0.101562C311.1 0.101562 351.3 40.3016 351.3 89.6016C351.4 139.002 311.2 179.102 261.8 179.102ZM261.8 48.6016C239.2 48.6016 220.8 67.0016 220.8 89.7016C220.8 112.302 239.2 130.702 261.8 130.702C284.4 130.702 302.8 112.302 302.8 89.7016C302.9 67.0016 284.5 48.6016 261.8 48.6016Z" fill="#4C5763"/>
<path opacity="0.4" d="M452 179.102C402.6 179.102 362.5 138.902 362.5 89.6016C362.5 40.3016 402.7 0.101562 452 0.101562C501.3 0.101562 541.5 40.3016 541.5 89.6016C541.5 139.002 501.4 179.102 452 179.102ZM452 48.6016C429.4 48.6016 411 67.0016 411 89.7016C411 112.302 429.4 130.702 452 130.702C474.6 130.702 493 112.302 493 89.7016C493.1 67.0016 474.7 48.6016 452 48.6016Z" fill="#4C5763"/>
<path d="M129.7 180.302C122.6 180.302 115.7 177.202 111 171.502L48.5 95.9016V156.002C48.5 169.402 37.7 180.202 24.3 180.202C10.9 180.202 0 169.402 0 156.002V28.6016C0 18.4016 6.4 9.30155 16 5.80155C25.6 2.30155 36.4 5.30155 42.9 13.1016L105.5 88.7016V28.6016C105.5 15.2016 116.3 4.40155 129.7 4.40155C143.1 4.40155 153.9 15.2016 153.9 28.6016V156.002C153.9 166.202 147.5 175.302 137.9 178.802C135.2 179.802 132.5 180.302 129.7 180.302Z" fill="#FFD453"/>
<path d="M672.6 180.302C665.6 180.302 658.7 177.302 653.9 171.502L601.2 107.802C592.7 97.5018 594.1 82.2018 604.4 73.7018C614.7 65.2018 630 66.6018 638.5 76.9018L691.2 140.602C699.7 150.902 698.3 166.202 688 174.702C683.5 178.402 678 180.302 672.6 180.302Z" fill="#FFD453"/>
<path d="M584.1 180.201C570.7 180.201 559.9 169.401 559.9 156.001V28.6014C559.9 15.2014 570.7 4.40137 584.1 4.40137C597.5 4.40137 608.3 15.2014 608.3 28.6014V156.001C608.3 169.401 597.5 180.201 584.1 180.201Z" fill="#FFD453"/>
<path d="M619.8 116.501C614.4 116.501 608.9 114.701 604.4 110.901C594.1 102.401 592.7 87.1014 601.2 76.8014L653.9 13.1015C662.4 2.80145 677.7 1.30145 688 9.90145C698.3 18.4015 699.7 33.7015 691.2 44.0015L638.5 107.701C633.7 113.601 626.8 116.501 619.8 116.501Z" fill="#FFD453"/>
<path d="M261.8 179.102C212.4 179.102 172.3 138.902 172.3 89.6016C172.3 40.2016 212.5 0.101562 261.8 0.101562C311.1 0.101562 351.3 40.3016 351.3 89.6016C351.3 103.002 340.5 113.802 327.1 113.802C313.7 113.802 302.9 103.002 302.9 89.6016C302.9 67.0016 284.5 48.5016 261.9 48.5016C239.3 48.5016 220.9 66.9016 220.9 89.6016C220.9 112.202 239.3 130.602 261.9 130.602C275.3 130.602 286.1 141.402 286.1 154.802C286.1 168.302 275.2 179.102 261.8 179.102Z" fill="#FFD453"/>
<path d="M452 179.102C402.6 179.102 362.5 138.902 362.5 89.6016C362.5 40.3016 402.7 0.101562 452 0.101562C465.4 0.101562 476.2 10.9016 476.2 24.3016C476.2 37.7016 465.4 48.6016 452 48.6016C429.4 48.6016 411 67.0016 411 89.7016C411 112.302 429.4 130.702 452 130.702C474.6 130.702 493 112.302 493 89.7016C493 76.3016 503.8 65.5016 517.2 65.5016C530.6 65.5016 541.4 76.3016 541.4 89.7016C541.5 139.002 501.4 179.102 452 179.102Z" fill="#FFD453"/>
</svg>
