<?xml version="1.0" encoding="UTF-8" standalone="no"?>
<!-- Created with Inkscape (http://www.inkscape.org/) -->

<svg
   width="512"
   height="512"
   viewBox="0 0 512 512"
   version="1.1"
   id="svg5"
   inkscape:version="1.2 (dc2aedaf03, 2022-05-15)"
   sodipodi:docname="cyko.nook.svg"
   inkscape:export-filename="cyko.nook.png"
   inkscape:export-xdpi="96"
   inkscape:export-ydpi="96"
   xmlns:inkscape="http://www.inkscape.org/namespaces/inkscape"
   xmlns:sodipodi="http://sodipodi.sourceforge.net/DTD/sodipodi-0.dtd"
   xmlns="http://www.w3.org/2000/svg"
   xmlns:svg="http://www.w3.org/2000/svg"
   xmlns:rdf="http://www.w3.org/1999/02/22-rdf-syntax-ns#"
   xmlns:cc="http://creativecommons.org/ns#"
   xmlns:dc="http://purl.org/dc/elements/1.1/">
  <sodipodi:namedview
     id="namedview7"
     pagecolor="#ffffff"
     bordercolor="#e5e5e5"
     borderopacity="1"
     inkscape:showpageshadow="true"
     inkscape:pageopacity="0"
     inkscape:pagecheckerboard="false"
     inkscape:deskcolor="#e5e5e5"
     inkscape:document-units="px"
     showgrid="false"
     inkscape:zoom="1.4142136"
     inkscape:cx="148.13887"
     inkscape:cy="171.82695"
     inkscape:window-width="1833"
     inkscape:window-height="1277"
     inkscape:window-x="410"
     inkscape:window-y="54"
     inkscape:window-maximized="0"
     inkscape:current-layer="layer2" />
  <defs
     id="defs2">
    <linearGradient
       id="linearGradient6961"
       inkscape:swatch="gradient">
      <stop
         style="stop-color:#423ac1;stop-opacity:1;"
         offset="0.52439022"
         id="stop6957" />
      <stop
         style="stop-color:#000000;stop-opacity:0;"
         offset="1"
         id="stop6959" />
    </linearGradient>
  </defs>
  <g
     inkscape:label="base"
     inkscape:groupmode="layer"
     id="layer1"
     inkscape:highlight-color="#808080"
     style="display:inline">
    <path
       id="rect6502"
       style="opacity:0.2;fill:#000000;fill-rule:evenodd;stroke-width:1.94392;stroke-dasharray:1.94392, 1.94392"
       inkscape:label="base:shade"
       d="m 488,462 v 10 c 0,13.296 -10.704,24 -24,24 H 48 C 34.704,496 24,485.296 24,472 v -10 z"
       sodipodi:nodetypes="csssscc" />
    <rect
       style="opacity:1;fill:#4d4d4d;fill-opacity:1;fill-rule:evenodd;stroke-width:1.94392;stroke-dasharray:1.94392, 1.94392"
       id="rect6454"
       width="464"
       height="464"
       x="24"
       y="24"
       rx="24"
       ry="24"
       inkscape:label="base:shape" />
    <path
       id="rect6483"
       style="opacity:0.15;fill:#ffffff;fill-rule:evenodd;stroke-width:1.94392;stroke-dasharray:1.94392, 1.94392"
       inkscape:label="base:shape"
       d="m 48,24 h 416 c 13.296,0 24,10.704 24,24 v 8 c 0,0 0,-24 -24,-24 H 48 C 24,32 24,56 24,56 V 48 C 24,34.704 34.704,24 48,24 Z"
       sodipodi:nodetypes="ssscsscss" />
  </g>
  <g
     inkscape:groupmode="layer"
     id="layer2"
     inkscape:label="main"
     style="display:inline;fill:#ffd453;fill-opacity:1">
    <g
       id="g2057"
       inkscape:label="o">
      <ellipse
         style="display:inline;fill:#666666;fill-opacity:1;fill-rule:evenodd;stroke-width:1.21461;stroke-dasharray:1.21461, 1.21461"
         id="ellipse5200"
         cx="256"
         cy="256"
         rx="112"
         ry="111.99999"
         inkscape:label="o:shape(fill)" />
      <path
         id="path5405"
         style="display:inline;opacity:0.15;fill:#000000;fill-opacity:1;fill-rule:evenodd;stroke-width:1.99543;stroke-dasharray:1.99543, 1.99543"
         inkscape:label="o:shade"
         d="M 440,264 A 184,184 0 0 1 256,448 184,184 0 0 1 72,264 184,184 0 0 1 256,80 184,184 0 0 1 440,264 Z m -72,0 A 112,112 0 0 1 256,375.99999 112,112 0 0 1 144,264 112,112 0 0 1 256,152 112,112 0 0 1 368,264 Z" />
      <path
         id="ellipse4783"
         style="display:inline;fill:#333333;fill-opacity:1;fill-rule:evenodd;stroke-width:1.99543;stroke-dasharray:1.99543, 1.99543"
         inkscape:label="o:shape"
         d="M 440,256 A 184,184 0 0 1 256,440 184,184 0 0 1 72,256 184,184 0 0 1 256,72 184,184 0 0 1 440,256 Z m -72,0 A 112,112 0 0 1 256,368 112,112 0 0 1 144,256 112,112 0 0 1 256,144 112,112 0 0 1 368,256 Z" />
    </g>
    <g
       id="g2052"
       inkscape:label="c">
      <g
         id="g2030"
         inkscape:label="c:shape:shade"
         style="display:none;fill:#ffd453;fill-opacity:1">
        <path
           id="path1928"
           style="display:inline;opacity:0.15;fill:#000000;fill-opacity:1;fill-rule:evenodd;stroke-width:1.99543;stroke-dasharray:1.99543, 1.99543"
           inkscape:label="c:shape:shade:a"
           d="m 256,440 c 2.55974,-0.0286 7.05148,-0.11585 9.63158,-0.25107 19.85497,-1.04055 35.10713,-17.97977 34.06656,-37.83477 -1.04055,-19.85497 -17.97976,-35.1071 -37.83474,-34.06658 -1.79455,0.094 -4.08515,0.14303 -5.8634,0.15242 z"
           sodipodi:nodetypes="cssccc" />
        <path
           id="path1868"
           style="display:inline;opacity:0.15;fill:#000000;fill-opacity:1;fill-rule:evenodd;stroke-width:1.99543;stroke-dasharray:1.99543, 1.99543"
           inkscape:label="c:shape:shade:b"
           d="m 368,256 c 0.0438,2.60182 -0.0163,3.22356 -0.1545,5.86161 -1.04055,19.85496 14.21161,36.79421 34.06657,37.83478 19.85496,1.04054 36.79422,-14.21162 37.83477,-34.06658 0.18673,-3.56297 0.26915,-6.10648 0.25316,-9.62982 0,1e-5 -72,1e-5 -72,1e-5 z"
           sodipodi:nodetypes="cssscc" />
      </g>
      <path
         id="path5611"
         style="display:inline;fill:#ffd453;fill-opacity:1;fill-rule:evenodd;stroke-width:1.99543;stroke-dasharray:1.99543, 1.99543"
         inkscape:label="c:shape"
         d="M 256,72 C 154.37981,72 72,154.3798 72,256 c 0,101.62019 82.37981,184 184,184 19.88223,0 36,-16.11778 36,-36 0,-19.88223 -16.11777,-36 -36,-36 -61.85577,0 -112,-50.14423 -112,-112 0,-61.85577 50.14423,-112 112,-112 61.85577,0 112,50.14423 112,112 0,19.88221 16.11779,36 36,36 19.88221,0 36,-16.11779 36,-36 C 440,154.3798 357.62019,72 256,72 Z" />
      <path
         style="display:none;opacity:0.4;fill:#ffffff;fill-opacity:1;fill-rule:evenodd;stroke-width:2.017;stroke-dasharray:2.017, 2.017"
         d="M 72,256 C 72,154.37961 154.37961,80.000007 256,80.000007 357.62039,80.000007 440,154.37961 440,256 m -368,-1e-5 c -10e-7,-101.62039 82.37961,-183.999992 184,-183.999992 101.62039,0 184,82.379602 184,183.999992"
         id="ellipse460"
         sodipodi:nodetypes="csccsc"
         inkscape:label="c:shine" />
    </g>
  </g>
  <metadata
     id="metadata2044">
    <rdf:RDF>
      <cc:Work
         rdf:about="">
        <dc:creator>
          <cc:Agent>
            <dc:title>eggheadedmonkey</dc:title>
          </cc:Agent>
        </dc:creator>
        <dc:publisher>
          <cc:Agent>
            <dc:title>cykomaniacs &lt;cyko@eggheadedmonkey.com&gt;</dc:title>
          </cc:Agent>
        </dc:publisher>
      </cc:Work>
    </rdf:RDF>
  </metadata>
</svg>
